# xmcd
#
# Track frame offsets:
#	150
#	17729
#	36638
#	49560
#	68911
#	92361
#	104243
#	122296
#	135897
#
# Disc length: 1997 seconds
#
# Revision: 1
# Processed by: cddbd v1.5.2PL0 Copyright (c) Steve Scherf et al.
# Submitted via: audiograbber 1.83.01
#
DISCID=7007cb09
DTITLE=Eric Hughes Band - Meet me in Memphis
DYEAR=2017
DGENRE=Blues
TTITLE0=Freigh train of pain
TTITLE1=Meet me in Memphis
TTITLE2=Rool a fatty for your daddy
TTITLE3=The day they hanged the kid
TTITLE4=Here comes the boogie man
TTITLE5=Left my heart in your place
TTITLE6=Midtown blues
TTITLE7=I'm knocking on your door
TTITLE8=Believe i'm going fishing
EXTD=
EXTT0=
EXTT1=
EXTT2=
EXTT3=
EXTT4=
EXTT5=
EXTT6=
EXTT7=
EXTT8=
PLAYORDER=
